<svg width="28" height="20" viewBox="0 0 28 20" fill="none" xmlns="http://www.w3.org/2000/svg">
<path d="M16.9333 17.2423L16.2507 17.5528V17.5528L16.9333 17.2423ZM15.8525 14.8663L15.1698 15.1768L15.8525 14.8663ZM11.9942 14.8065L12.6669 15.1381L11.9942 14.8065ZM10.7525 17.3262L10.0797 16.9946L10.7525 17.3262ZM0.0146484 7V16H1.51465V7H0.0146484ZM3.76465 3.25C1.69358 3.25 0.0146484 4.92893 0.0146484 7H1.51465C1.51465 5.75736 2.52201 4.75 3.76465 4.75V3.25ZM24.2352 3.25H3.76465V4.75H24.2352V3.25ZM27.9852 7C27.9852 4.92893 26.3063 3.25 24.2352 3.25V4.75C25.4779 4.75 26.4852 5.75736 26.4852 7H27.9852ZM27.9852 16V7H26.4852V16H27.9852ZM24.2352 19.75C26.3063 19.75 27.9852 18.0711 27.9852 16H26.4852C26.4852 17.2426 25.4779 18.25 24.2352 18.25V19.75ZM19.6641 19.75H24.2352V18.25H19.6641V19.75ZM16.2507 17.5528C16.8594 18.891 18.1939 19.75 19.6641 19.75V18.25C18.782 18.25 17.9813 17.7346 17.616 16.9317L16.2507 17.5528ZM15.1698 15.1768L16.2507 17.5528L17.616 16.9317L16.5351 14.5557L15.1698 15.1768ZM13.9092 14.3654C14.4521 14.3654 14.945 14.6826 15.1698 15.1768L16.5351 14.5557C16.0668 13.5262 15.0402 12.8654 13.9092 12.8654V14.3654ZM12.6669 15.1381C12.9001 14.665 13.3818 14.3654 13.9092 14.3654V12.8654C12.8105 12.8654 11.8072 13.4895 11.3215 14.475L12.6669 15.1381ZM11.4252 17.6577L12.6669 15.1381L11.3215 14.475L10.0797 16.9946L11.4252 17.6577ZM8.0615 19.75C9.48967 19.75 10.7939 18.9388 11.4252 17.6577L10.0797 16.9946C9.70091 17.7633 8.9184 18.25 8.0615 18.25V19.75ZM3.76465 19.75H8.0615V18.25H3.76465V19.75ZM0.0146484 16C0.0146484 18.0711 1.69358 19.75 3.76465 19.75V18.25C2.52201 18.25 1.51465 17.2426 1.51465 16H0.0146484ZM7.8687 14.4163C9.76305 14.4163 11.311 12.8934 11.311 10.9997H9.81101C9.81101 12.0515 8.94819 12.9163 7.8687 12.9163V14.4163ZM4.42639 10.9997C4.42639 12.8934 5.97435 14.4163 7.8687 14.4163V12.9163C6.78921 12.9163 5.92639 12.0515 5.92639 10.9997H4.42639ZM7.8687 7.58301C5.97435 7.58301 4.42639 9.10595 4.42639 10.9997H5.92639C5.92639 9.94788 6.78921 9.08301 7.8687 9.08301V7.58301ZM11.311 10.9997C11.311 9.10595 9.76305 7.58301 7.8687 7.58301V9.08301C8.94819 9.08301 9.81101 9.94788 9.81101 10.9997H11.311ZM22.5995 10.9997C22.5995 12.0515 21.7366 12.9163 20.6572 12.9163V14.4163C22.5515 14.4163 24.0995 12.8934 24.0995 10.9997H22.5995ZM20.6572 9.08301C21.7366 9.08301 22.5995 9.94788 22.5995 10.9997H24.0995C24.0995 9.10595 22.5515 7.58301 20.6572 7.58301V9.08301ZM18.7148 10.9997C18.7148 9.94788 19.5777 9.08301 20.6572 9.08301V7.58301C18.7628 7.58301 17.2148 9.10595 17.2148 10.9997H18.7148ZM20.6572 12.9163C19.5777 12.9163 18.7148 12.0515 18.7148 10.9997H17.2148C17.2148 12.8934 18.7628 14.4163 20.6572 14.4163V12.9163Z" fill="#ffffff"/>
<path d="M5 3V3C5 1.89543 5.89543 1 7 1H22C23.1046 1 24 1.89543 24 3V3" stroke="#ffffff" stroke-width="1.5" stroke-linecap="round"/>
<path d="M13 18H15" stroke="#ffffff" stroke-width="1.5" stroke-linecap="round"/>
</svg>
